<svg version="1.1" id="Capa_1" xmlns="http://www.w3.org/2000/svg" x="0" y="0" viewBox="0 0 510 510" xml:space="preserve"><style>.st0{fill:#202020}</style><path class="st0" d="M339 163.1c4.9-5 8.9-9 12.8-13.1 2.9-3 5.9-4.4 9.5-1 2.7 2.6 2.4 6.1-1.1 9.6-6 6.1-11.9 12.2-18 18-2.4 2.3-3.2 4.6-3.2 7.8.1 56.5.1 113 .1 169.4 0 8-1.2 9.2-9.3 9.2h-148c-9.9 0-10.7-.8-10.8-10.8 0-1.1-.1-2.2-.2-5-4.7 5-8.5 9-12.2 12.9-2.9 3-6 4.4-9.6 1.3-3.1-2.7-2.6-6 1.2-9.9 5.6-5.7 11.2-11.4 17-16.9 2.7-2.6 3.9-5.2 3.9-9.1-.1-44.3 0-88.6-.2-133 0-4.2 1.3-7.2 4.2-10.1 10.5-10.2 20.8-20.6 31.1-31.1 3.1-3.2 6.5-4.7 11-4.7 36.7.1 73.3.1 110 .1 10.7 0 11.7 1 11.8 11.6v4.8zm-12.2 30.8c-12.4 12.3-25 24.8-37.7 37.3h7.1c3.9 0 6.6 1.8 6.6 5.8.1 4.3-2.7 6.2-6.8 6.2-5.8 0-11.7-.1-17.5.1-1.4 0-3.1.3-4.1 1.1-3.5 3.1-6.8 6.6-11 10.8h33.2c3.6 0 6.1 1.9 6.3 5.7.1 4.1-2.3 6-6.3 6.2-1.2.1-2.3 0-3.5 0-12.7 0-25.3-.1-38 .1-1.9 0-4.3.8-5.7 2.1-21.6 21.3-43 42.8-64.4 64.3-1 1-2 2.4-2 3.7-.3 4.4-.1 8.9-.1 13.4h143.8c.1-52.7.1-105.1.1-156.8zm-43.9 25.3h-64.1c-2 0-4 .1-6 0-3.6-.2-5.6-2.4-5.7-5.8-.1-3.4 2.1-5.5 5.5-6 1.3-.2 2.7-.1 4-.1 24.7 0 49.3 0 74-.1 2.1 0 4.7-.8 6.2-2.2 9.6-9.2 19-18.7 28.3-28.2 1-1 1.8-2.5 1.9-3.8.2-4.4.1-8.9.1-13.5h-108v27.3c0 6.8-1.6 8.4-8.6 8.5h-27.1v121.3c16.3-16.1 32.9-32.7 49.7-49.3-6 0-12.1-.1-18.2 0-4.2.1-7.3-1.3-7.8-5.8-.4-3.7 2.8-6.1 8-6.1h28c1.4 0 3.3 0 4.2-.9 3.6-3.3 6.9-6.9 11.1-11.1h-42.9c-5.5 0-8.6-2.4-8.4-6.3.2-3.7 3.1-5.8 8.4-5.8 17 0 34 0 51-.1 1.9 0 4.1-.3 5.5-1.4 3.4-3 6.6-6.4 10.9-10.6zm-76.2-49.5c-4.5 4.2-9.2 8.7-14.1 13.2h14.1v-13.2z"/><path class="st0" d="M290.4 323.4c-6.7 4.9-14.1 5.3-21.9.6-.9-.5-2.7-.1-3.8.5-7.5 4.3-15.6 2.8-23.4 2.2-1.6-.1-4.2-4-3.9-5.8.4-2.1 3.1-4.8 5.3-5.3 3.4-.9 7.3-.3 10.9-.3 4.2 0 7-1.4 7.5-6.1.3-3.6 2.5-5.9 6.2-5.8 3.4.1 5.4 2.2 5.7 5.7.4 3.8 2.5 6.4 6.5 6.1 4.2-.4 5.7-3.3 5.5-7.4-.2-3.3-.1-6.7 0-10 .1-3.9 2.3-6.5 6.2-6.4 3.9.1 5.9 2.7 5.8 6.7-.1 3.3 0 6.7 0 10-.1 4.1 1.8 6.7 5.9 7.2 4.2.6 6.6 2.8 5.9 7-.7 4.3-4 5.7-7.9 4.8-3.2-.8-6.4-2.3-10.5-3.7zM279 195.2c-5.5 0-11 .1-16.5 0-4.7-.1-7.8-2.6-7.4-6.2.5-4.2 3.2-5.8 7.3-5.8 11.2.1 22.3 0 33.5 0 4.1 0 7 1.6 7 5.9 0 4.4-2.9 6-6.9 6-5.7.1-11.4.1-17 .1z"/></svg>