<svg version="1.1" id="Capa_1" xmlns="http://www.w3.org/2000/svg" x="0" y="0" viewBox="0 0 510 510" xml:space="preserve"><style>.st0{fill:#202020}</style><g id="surface1"><path class="st0" d="M344 207.1v-.2c-.1-2-.2-4.1-.2-6.5-.2-11.6-9.4-21.1-20.9-21.8-24.1-1.3-42.7-9.2-58.7-24.7l-.1-.1c-5.2-4.8-13-4.8-18.2 0l-.1.1c-15.9 15.5-34.6 23.4-58.7 24.7-11.6.6-20.7 10.2-20.9 21.8 0 2.4-.1 4.5-.2 6.5v.4c-.5 24.6-1.1 55.2 9.2 82.9 5.6 15.3 14.1 28.5 25.3 39.4 12.7 12.4 29.4 22.3 49.5 29.3.7.2 1.3.4 2 .6 1 .2 2 .3 2.9.3 1 0 2-.1 2.9-.3.7-.1 1.4-.3 2-.6 20.1-7 36.8-16.9 49.5-29.3 11.2-10.9 19.7-24.2 25.3-39.4 10.5-27.9 9.9-58.5 9.4-83.1zm-20.7 78.8c-10.8 29.3-32.8 49.3-67.3 61.4-.1 0-.3.1-.4.1-.4.1-.7.1-1.1 0-.1 0-.3-.1-.4-.1-34.6-12-56.6-32.1-67.4-61.4-9.4-25.6-8.9-53.7-8.4-78.4v-.1c.1-2.1.2-4.4.2-6.8.1-5.1 4.2-9.4 9.3-9.7 13.6-.8 25.6-3.4 36.6-8.1 11-4.7 20.8-11.2 29.8-20.1.5-.4 1.1-.4 1.5 0 9.1 8.8 18.9 15.4 29.8 20.1 11 4.7 23 7.3 36.6 8.1 5.1.3 9.2 4.5 9.3 9.7 0 2.5.1 4.7.2 6.8.6 24.8 1.1 52.9-8.3 78.5z"/><path class="st0" d="M255 202.8c-28.8 0-52.2 23.4-52.2 52.2 0 28.8 23.4 52.2 52.2 52.2 28.8 0 52.2-23.4 52.2-52.2 0-28.8-23.4-52.2-52.2-52.2zm0 92.1c-22 0-39.9-17.9-39.9-39.9s17.9-39.9 39.9-39.9 39.9 17.9 39.9 39.9-17.9 39.9-39.9 39.9z"/><path class="st0" d="M270 238.8L245.8 263l-6.6-6.6c-2.4-2.4-6.3-2.4-8.7 0-2.4 2.4-2.4 6.3 0 8.7l10.9 10.9c1.2 1.2 2.8 1.8 4.3 1.8s3.1-.6 4.3-1.8l28.6-28.6c2.4-2.4 2.4-6.3 0-8.7-2.3-2.3-6.2-2.3-8.6.1z"/></g></svg>