<svg xmlns="http://www.w3.org/2000/svg" width="841.89" height="595.28"><g fill="#1B2125"><path d="M420.945 252.761c-24.785 0-44.879 20.094-44.879 44.879 0 24.785 20.094 44.878 44.879 44.878 24.786 0 44.879-20.094 44.879-44.878 0-24.785-20.094-44.879-44.879-44.879zm-11.863 66.992h-10.723v-32.265h10.723v32.265zm-5.364-36.668h-.066c-3.602 0-5.93-2.476-5.93-5.574 0-3.164 2.399-5.574 6.071-5.574 3.668 0 5.925 2.41 5.996 5.574 0 3.098-2.328 5.574-6.071 5.574zm44.04 36.668h-10.727v-17.262c0-4.335-1.547-7.296-5.434-7.296-2.961 0-4.723 1.996-5.5 3.925-.285.688-.355 1.645-.355 2.613v18.02h-10.731s.145-29.238 0-32.265h10.731v4.574c1.426-2.195 3.969-5.332 9.668-5.332 7.059 0 12.348 4.613 12.348 14.519v18.504z"/><path d="M425.742 292.167v-.105c-.02.035-.051.07-.07.105h.07z"/></g></svg>