<svg xmlns="http://www.w3.org/2000/svg" width="841.89" height="595.28"><path fill="#1B2125" d="M420.944 252.762c-24.784 0-44.879 20.094-44.879 44.879 0 24.784 20.095 44.878 44.879 44.878 24.786 0 44.88-20.094 44.88-44.878 0-24.786-20.094-44.879-44.88-44.879zm3.622 60.096c-3.391-.266-4.816-1.945-7.478-3.562-1.464 7.672-3.25 15.027-8.546 18.871-1.634-11.598 2.397-20.309 4.272-29.551-3.19-5.378.383-16.198 7.121-13.53 8.29 3.277-7.18 19.987 3.208 22.073 10.84 2.18 15.266-18.808 8.543-25.636-9.715-9.855-28.277-.223-25.993 13.887.556 3.448 4.121 4.495 1.422 9.257-6.215-1.379-8.07-6.281-7.831-12.815.386-10.699 9.612-18.191 18.87-19.23 11.712-1.309 22.7 4.301 24.216 15.312 1.708 12.428-5.284 25.889-17.804 24.924z"/></svg>