<svg xmlns="http://www.w3.org/2000/svg" width="841.889" height="595.281"><path fill="#FFF" d="M698.82 542.031L561.859 405.07c33.949-41.391 54.412-94.408 54.412-152.192 0-132.543-107.546-240.089-240.088-240.089-132.659 0-240.089 107.546-240.089 240.089s107.43 240.089 240.089 240.089c57.783 0 110.685-20.347 152.075-54.296l136.961 136.845c9.301 9.301 24.299 9.301 33.601 0 9.3-9.185 9.3-24.3 0-33.485zm-322.637-96.85c-106.151 0-192.42-86.269-192.42-192.304 0-106.034 86.269-192.42 192.42-192.42 106.034 0 192.419 86.386 192.419 192.42 0 106.036-86.385 192.304-192.419 192.304z"/></svg>