<svg xmlns="http://www.w3.org/2000/svg" viewBox="0 0 510 510"><path d="M344 207.1v-.2c-.1-2-.2-4.1-.2-6.5-.2-11.6-9.4-21.1-20.9-21.8-24.1-1.3-42.7-9.2-58.7-24.7l-.1-.1c-5.2-4.8-13-4.8-18.2 0l-.1.1c-15.9 15.5-34.6 23.4-58.7 24.7-11.6.6-20.7 10.2-20.9 21.8 0 2.4-.1 4.5-.2 6.5v.4c-.5 24.6-1.1 55.2 9.2 82.9 5.6 15.3 14.1 28.5 25.3 39.4 12.7 12.4 29.4 22.3 49.5 29.3.7.2 1.3.4 2 .6 1 .2 2 .3 2.9.3 1 0 2-.1 2.9-.3.7-.1 1.4-.3 2-.6 20.1-7 36.8-16.9 49.5-29.3 11.2-10.9 19.7-24.2 25.3-39.4 10.5-27.9 9.9-58.5 9.4-83.1z" fill="#202020"/><path d="M255 348.3c-1 0-1.9-.1-2.9-.3-.7-.1-1.3-.3-2-.5-17.9-6.2-32.7-15-44-26-10-9.7-17.5-21.5-22.6-35.1-9.1-24.6-8.6-51.6-8.1-73.2v-.3c.1-1.8.1-3.7.2-5.7.2-10.9 8.8-19.9 19.7-20.5 20.7-1.2 36.8-7.9 50.5-21.2l.1-.1c5.2-4.7 12.9-4.7 18 0l.1.1c13.7 13.4 29.7 20.1 50.5 21.3 10.9.6 19.6 9.6 19.7 20.5 0 2.1.1 3.9.2 5.7v.2c.4 21.7.9 48.7-8.2 73.4-5 13.6-12.6 25.4-22.5 35.1-11.3 11-26.1 19.8-43.9 26-.6.2-1.3.4-2 .5-.9 0-1.8.1-2.8.1zm0-183.6c-2.5 0-5 .9-7 2.7l-.1.1c-14.2 13.9-30.9 20.9-52.4 22.1-9.3.5-16.8 8.2-16.9 17.6 0 2.1-.1 3.9-.2 5.8v.3c-.4 21.4-.9 48 8 72.1 4.9 13.2 12.2 24.6 21.8 34 11 10.7 25.4 19.3 42.9 25.3.5.2 1 .3 1.6.4 1.5.3 3.1.3 4.6 0 .5-.1 1.1-.3 1.6-.4 17.4-6.1 31.8-14.6 42.8-25.4 9.6-9.4 17-20.9 21.8-34 8.9-24.1 8.4-50.8 8-72.3v-.1c-.1-1.7-.1-3.6-.2-5.7-.1-9.3-7.6-17.1-16.9-17.6-21.5-1.2-38.1-8.2-52.4-22.1l-.1-.1c-1.9-1.8-4.4-2.7-6.9-2.7z" fill="#3d3d3d"/><path d="M255 293.7c-21.3 0-38.7-17.4-38.7-38.7s17.4-38.7 38.7-38.7c21.3 0 38.7 17.4 38.7 38.7s-17.4 38.7-38.7 38.7z" fill="#0a0a0a"/><path d="M265.8 241.9l-17 17-4.6-4.6c-1.7-1.7-4.4-1.7-6.1 0-1.7 1.7-1.7 4.4 0 6.1l7.7 7.7c.8.8 1.9 1.3 3.1 1.3 1.1 0 2.2-.4 3.1-1.3l20.1-20.1c1.7-1.7 1.7-4.4 0-6.1-1.9-1.7-4.6-1.7-6.3 0z" fill="#a0a0a0"/></svg>