<svg xmlns="http://www.w3.org/2000/svg" viewBox="0 0 510 510"><path d="M443.4 138.2c-13.9 6.1-28.8 10.3-44.4 12.2 16-9.6 28.2-24.7 34-42.7-15 8.9-31.5 15.3-49.1 18.8-14.1-15-34.2-24.4-56.4-24.4-42.7 0-77.3 34.6-77.3 77.3 0 6.1.7 12 2 17.6-64.2-3.2-121.2-34-159.3-80.8-6.7 11.4-10.5 24.7-10.5 38.9 0 26.8 13.7 50.5 34.4 64.3-12.7-.4-24.6-3.9-35-9.7v1c0 37.4 26.7 68.7 62 75.8-6.5 1.7-13.3 2.7-20.4 2.7-5 0-9.8-.5-14.6-1.4 9.8 30.7 38.4 53.1 72.2 53.7-26.4 20.7-59.8 33-96 33-6.2 0-12.4-.4-18.4-1.1 34.2 22 74.8 34.8 118.5 34.8 142.2 0 220-117.8 220-220l-.3-10c15.2-10.9 28.3-24.5 38.6-40z" fill="#1292ee"/></svg>