<svg version="1.1" id="Capa_1" xmlns="http://www.w3.org/2000/svg" x="0" y="0" viewBox="0 0 510 510" xml:space="preserve"><path d="M174.9 353.9c1.2 1.6 3 2.6 5.1 2.6h114c1.7 0 3.3-.7 4.5-1.9l35.9-35.9c1.2-1.2 1.9-2.8 1.9-4.5V195.9l-161.4 158zm125.5-19.1v-14.2h14.2l-14.2 14.2zm36-156.7v-18.3c0-3.5-2.9-6.4-6.4-6.4H180c-3.5 0-6.4 2.9-6.4 6.4v177.5l162.8-159.2z" fill="#202020"/><path d="M260.6 325.4c-4.4 3.2-9.3 3.5-14.4.4-.6-.3-1.8-.1-2.5.3-4.9 2.9-10.2 1.9-15.4 1.4-1-.1-2.8-2.6-2.6-3.8.2-1.4 2-3.1 3.5-3.5 2.2-.6 4.8-.2 7.2-.2 2.8 0 4.6-.9 4.9-4 .2-2.4 1.7-3.9 4.1-3.8 2.2.1 3.5 1.5 3.8 3.8.3 2.5 1.7 4.2 4.3 4 2.8-.2 3.8-2.2 3.6-4.9-.1-2.2-.1-4.4 0-6.6.1-2.6 1.5-4.3 4.1-4.2 2.5.1 3.8 1.8 3.8 4.4v6.6c0 2.7 1.2 4.4 3.9 4.8 2.7.4 4.3 1.8 3.9 4.6-.4 2.8-2.6 3.7-5.2 3.2-2.2-.6-4.3-1.6-7-2.5zm-41.8-142.6h-12.7c-3.5 0-6.4 2.9-6.4 6.4s2.9 6.4 6.4 6.4h12.7c3.5 0 6.4-2.9 6.4-6.4s-2.9-6.4-6.4-6.4zm61.7 0h-38c-3.5 0-6.4 2.9-6.4 6.4s2.9 6.4 6.4 6.4h38c3.5 0 6.4-2.9 6.4-6.4s-2.8-6.4-6.4-6.4zm25.3 82.1h-2.4c-3.5 0-6.4 2.9-6.4 6.4s2.9 6.4 6.4 6.4h2.4c3.5 0 6.4-2.9 6.4-6.4s-2.9-6.4-6.4-6.4zm-101.6-35.1h79.4l13-12.7h-92.4c-3.5 0-6.4 2.9-6.4 6.4s2.9 6.3 6.4 6.3zm97.6 0h4.1c3.5 0 6.4-2.9 6.4-6.4 0-1.1-.3-2.2-.8-3.1l-9.7 9.5zm-97.6 23.3h55.5l13-12.7h-68.6c-3.5 0-6.4 2.9-6.4 6.4s3 6.3 6.5 6.3zm101.6-12.7h-14.9l-13 12.7h27.9c3.5 0 6.4-2.9 6.4-6.4s-2.9-6.3-6.4-6.3zm-101.6 37.2h30.5l13-12.7h-43.5c-3.5 0-6.4 2.9-6.4 6.4s2.9 6.3 6.4 6.3zm77-12.7h-15.3l-13 12.7h28.3c3.5 0 6.4-2.9 6.4-6.4s-2.9-6.3-6.4-6.3z" fill="#a0a0a0"/></svg>