<svg version="1.1" id="Layer_1" xmlns="http://www.w3.org/2000/svg" x="0" y="0" width="841.89" height="595.28" xml:space="preserve"><path fill="#1B2125" d="M420.945 252.761c-24.785 0-44.879 20.094-44.879 44.879 0 24.785 20.094 44.878 44.879 44.878 24.786 0 44.879-20.094 44.879-44.878 0-24.785-20.094-44.879-44.879-44.879zm22.137 37.805c.02.461.031.922.031 1.387 0 14.175-10.793 30.523-30.524 30.523a30.356 30.356 0 0 1-16.441-4.82c.836.102 1.691.148 2.559.148 5.027 0 9.652-1.711 13.324-4.59-4.695-.086-8.656-3.188-10.024-7.449a10.774 10.774 0 0 0 4.844-.188c-4.906-.984-8.605-5.32-8.605-10.515v-.137a10.67 10.67 0 0 0 4.859 1.344 10.726 10.726 0 0 1-4.769-8.93c0-1.965.527-3.809 1.453-5.395 5.289 6.492 13.195 10.762 22.109 11.211a10.712 10.712 0 0 1-.277-2.445c0-5.922 4.801-10.727 10.727-10.727 3.086 0 5.875 1.301 7.832 3.387a21.54 21.54 0 0 0 6.812-2.602 10.786 10.786 0 0 1-4.719 5.934 21.435 21.435 0 0 0 6.16-1.688 21.746 21.746 0 0 1-5.351 5.552z"/></svg>